<svg width="16" height="16" viewBox="0 0 16 16" fill="none" xmlns="http://www.w3.org/2000/svg">
    <g id="call">
        <path d="M12.9335 9.90336C12.3961 9.78777 11.971 10.0373 11.5946 10.2551C11.2091 10.4797 10.4761 11.0743 10.056 10.9221C7.90487 10.0364 5.88171 8.15363 5.00591 5.9939C4.85155 5.56478 5.4434 4.82713 5.66626 4.4371C5.88253 4.05954 6.12686 3.63042 6.01543 3.08904C5.91472 2.60254 4.61217 0.94511 4.15158 0.491875C3.84781 0.19249 3.53662 0.0278285 3.21718 0.00121652C2.01616 -0.0503442 0.674813 1.5522 0.439562 1.93557C-0.149804 2.75306 -0.146502 3.84082 0.449467 5.15978C1.88574 8.7025 7.31798 14.049 10.874 15.5393C11.5302 15.8462 12.1303 16 12.6693 16C13.1968 16 13.6665 15.8528 14.0701 15.5609C14.3747 15.3854 16.0429 13.9775 15.9992 12.7442C15.9727 12.4298 15.8085 12.1155 15.513 11.8111C15.0631 11.3462 13.4163 10.0048 12.9335 9.90336Z"
              fill="#A303A0"/>
    </g>
    <g id="message">
        <path fill-rule="evenodd" clip-rule="evenodd"
              d="M11.9512 0C13.024 0 14.056 0.441667 14.8152 1.23417C15.5752 2.025 16 3.09167 16 4.20833V10.7917C16 13.1167 14.184 15 11.9512 15H4.048C1.8152 15 0 13.1167 0 10.7917V4.20833C0 1.88333 1.8072 0 4.048 0H11.9512ZM13.224 5.44987L13.288 5.3832C13.4792 5.14153 13.4792 4.79153 13.2792 4.54987C13.168 4.4257 13.0152 4.34987 12.856 4.3332C12.688 4.32403 12.528 4.3832 12.4072 4.49987L8.79999 7.49987C8.33599 7.9007 7.67119 7.9007 7.19999 7.49987L3.59999 4.49987C3.35119 4.3082 3.00719 4.3332 2.79999 4.5582C2.58399 4.7832 2.55999 5.14153 2.74319 5.39153L2.84799 5.49987L6.48799 8.4582C6.93599 8.82487 7.47919 9.02487 8.04799 9.02487C8.61519 9.02487 9.16799 8.82487 9.61519 8.4582L13.224 5.44987Z"
              fill="#A303A0"/>
    </g>
    <g id="ticket">
        <g opacity="0.8">
            <g clip-path="url(#clip0_0_427)">
                <path d="M20 2H4C2.9 2 2.01 2.9 2.01 4L2 22L6 18H20C21.1 18 22 17.1 22 16V4C22 2.9 21.1 2 20 2ZM18 14H6V12H18V14ZM18 11H6V9H18V11ZM18 8H6V6H18V8Z"
                      fill="white"/>
            </g>
        </g>
        <defs>
            <clipPath id="clip0_0_427">
                <rect width="24" height="24" fill="white"/>
            </clipPath>
        </defs>
    </g>
    <g id="cake">
        <g clip-path="url(#clip0_14_306)">
            <path d="M12 6C13.11 6 14 5.1 14 4C14 3.62 13.9 3.27 13.71 2.97L12 0L10.29 2.97C10.1 3.27 10 3.62 10 4C10 5.1 10.9 6 12 6ZM16.6 15.99L15.53 14.92L14.45 15.99C13.15 17.29 10.87 17.3 9.56 15.99L8.49 14.92L7.4 15.99C6.75 16.64 5.88 17 4.96 17C4.23 17 3.56 16.77 3 16.39V21C3 21.55 3.45 22 4 22H20C20.55 22 21 21.55 21 21V16.39C20.44 16.77 19.77 17 19.04 17C18.12 17 17.25 16.64 16.6 15.99ZM18 9H13V7H11V9H6C4.34 9 3 10.34 3 12V13.54C3 14.62 3.88 15.5 4.96 15.5C5.48 15.5 5.98 15.3 6.34 14.93L8.48 12.8L10.61 14.93C11.35 15.67 12.64 15.67 13.38 14.93L15.52 12.8L17.65 14.93C18.02 15.3 18.51 15.5 19.03 15.5C20.11 15.5 20.99 14.62 20.99 13.54V12C21 10.34 19.66 9 18 9Z"
                  fill="#A303A0"/>
        </g>
        <defs>
            <clipPath id="clip0_14_306">
                <rect width="24" height="24" fill="white"/>
            </clipPath>
        </defs>
    </g>
    <g id="chat">
        <g clip-path="url(#clip0_14_254)">
            <path d="M23.3334 2.33331H4.66671C3.38337 2.33331 2.33337 3.38331 2.33337 4.66665V25.6666L7.00004 21H23.3334C24.6167 21 25.6667 19.95 25.6667 18.6666V4.66665C25.6667 3.38331 24.6167 2.33331 23.3334 2.33331ZM23.3334 18.6666H7.00004L4.66671 21V4.66665H23.3334V18.6666Z"
                  fill="#A303A0"/>
        </g>
        <defs>
            <clipPath id="clip0_14_254">
                <rect width="28" height="28" fill="white"/>
            </clipPath>
        </defs>
    </g>
    <g id="favoriteBorder">
        <g clip-path="url(#clip0_14_251)">
            <path d="M19.25 3.5C17.22 3.5 15.2717 4.445 14 5.93833C12.7284 4.445 10.78 3.5 8.75004 3.5C5.15671 3.5 2.33337 6.32333 2.33337 9.91667C2.33337 14.3267 6.30004 17.92 12.3084 23.38L14 24.9083L15.6917 23.3683C21.7 17.92 25.6667 14.3267 25.6667 9.91667C25.6667 6.32333 22.8434 3.5 19.25 3.5ZM14.1167 21.6417L14 21.7583L13.8834 21.6417C8.33004 16.6133 4.66671 13.2883 4.66671 9.91667C4.66671 7.58333 6.41671 5.83333 8.75004 5.83333C10.5467 5.83333 12.2967 6.98833 12.915 8.58667H15.0967C15.7034 6.98833 17.4534 5.83333 19.25 5.83333C21.5834 5.83333 23.3334 7.58333 23.3334 9.91667C23.3334 13.2883 19.67 16.6133 14.1167 21.6417Z"
                  fill="#A303A0"/>
        </g>
        <defs>
            <clipPath id="clip0_14_251">
                <rect width="28" height="28" fill="white"/>
            </clipPath>
        </defs>
    </g>
    <g id="searchIcon">
        <g opacity="0.8">
            <path fill-rule="evenodd" clip-rule="evenodd"
                  d="M1.16666 6.22411C1.16666 3.43096 3.40685 1.16666 6.17028 1.16666C7.49732 1.16666 8.77001 1.69949 9.70837 2.64795C10.6467 3.59641 11.1739 4.88279 11.1739 6.22411C11.1739 9.01727 8.9337 11.2816 6.17028 11.2816C3.40685 11.2816 1.16666 9.01727 1.16666 6.22411ZM11.0911 10.2983L12.5813 11.5012H12.6072C12.9087 11.806 12.9087 12.3 12.6072 12.6048C12.3057 12.9095 11.8169 12.9095 11.5154 12.6048L10.2787 11.1874C10.1618 11.0697 10.0961 10.9097 10.0961 10.7429C10.0961 10.576 10.1618 10.4161 10.2787 10.2983C10.5042 10.0744 10.8656 10.0744 11.0911 10.2983Z"
                  fill="#490057"/>
        </g>
    </g>
    <g id="location">
        <path fill-rule="evenodd" clip-rule="evenodd"
              d="M0 7.07009C0 3.16021 3.16555 0 6.9946 0C10.8344 0 14 3.16021 14 7.07009C14 9.04034 13.3058 10.8695 12.1631 12.4198C10.9025 14.13 9.34883 15.62 7.59998 16.7896C7.19972 17.0599 6.83848 17.0803 6.39919 16.7896C4.64037 15.62 3.08666 14.13 1.83688 12.4198C0.693398 10.8695 0 9.04034 0 7.07009ZM4.68945 7.29019C4.68945 8.6 5.72498 9.63017 6.99469 9.63017C8.26523 9.63017 9.31072 8.6 9.31072 7.29019C9.31072 5.99058 8.26523 4.91026 6.99469 4.91026C5.72498 4.91026 4.68945 5.99058 4.68945 7.29019Z"
              fill="#A303A0"/>
    </g>
    <g id="person">
        <g clip-path="url(#clip0_14_317)">
            <path d="M12 12C14.21 12 16 10.21 16 8C16 5.79 14.21 4 12 4C9.79 4 8 5.79 8 8C8 10.21 9.79 12 12 12ZM12 14C9.33 14 4 15.34 4 18V20H20V18C20 15.34 14.67 14 12 14Z"
                  fill="#A303A0"/>
        </g>
        <defs>
            <clipPath id="clip0_14_317">
                <rect width="24" height="24" fill="white"/>
            </clipPath>
        </defs>
    </g>
    <g id="home">
        <g opacity="0.8">
            <path d="M8 17V11H12V17H17V9H20L10 0L0 9H3V17H8Z" fill="white"/>
        </g>
    </g>
    <g id="vector">
        <path d="M18 0H2C0.9 0 0.00999999 0.9 0.00999999 2L0 20L4 16H18C19.1 16 20 15.1 20 14V2C20 0.9 19.1 0 18 0ZM16 12H4V10H16V12ZM16 9H4V7H16V9ZM16 6H4V4H16V6Z"
              fill="white"/>
    </g>
    <g id="settings">
        <path fill-rule="evenodd" clip-rule="evenodd"
              d="M18.4022 11.5801C18.7599 11.7701 19.0358 12.0701 19.23 12.3701C19.6081 12.9901 19.5775 13.7501 19.2096 14.4201L18.4942 15.6201C18.1161 16.2601 17.4109 16.6601 16.6853 16.6601C16.3277 16.6601 15.9291 16.5601 15.6021 16.3601C15.3364 16.1901 15.0298 16.1301 14.7027 16.1301C13.691 16.1301 12.8428 16.9601 12.8121 17.9501C12.8121 19.1001 11.8719 20.0001 10.6967 20.0001H9.3068C8.12133 20.0001 7.18113 19.1001 7.18113 17.9501C7.16069 16.9601 6.31247 16.1301 5.30073 16.1301C4.96348 16.1301 4.6569 16.1901 4.40141 16.3601C4.07438 16.5601 3.6656 16.6601 3.31813 16.6601C2.58232 16.6601 1.87717 16.2601 1.49905 15.6201L0.793898 14.4201C0.415773 13.7701 0.395334 12.9901 0.773459 12.3701C0.936972 12.0701 1.24356 11.7701 1.59102 11.5801C1.87717 11.4401 2.06112 11.2101 2.23486 10.9401C2.74584 10.0801 2.43925 8.9501 1.57059 8.4401C0.558848 7.8701 0.231821 6.6001 0.814337 5.6101L1.49905 4.4301C2.09178 3.4401 3.35901 3.0901 4.38097 3.6701C5.27007 4.1501 6.42488 3.8301 6.94608 2.9801C7.10959 2.7001 7.20157 2.4001 7.18113 2.1001C7.16069 1.7101 7.27311 1.3401 7.46728 1.0401C7.8454 0.420099 8.53012 0.0200992 9.27614 9.91821e-05H10.7171C11.4734 9.91821e-05 12.1581 0.420099 12.5362 1.0401C12.7201 1.3401 12.8428 1.7101 12.8121 2.1001C12.7917 2.4001 12.8837 2.7001 13.0472 2.9801C13.5684 3.8301 14.7232 4.1501 15.6225 3.6701C16.6342 3.0901 17.9117 3.4401 18.4942 4.4301L19.1789 5.6101C19.7716 6.6001 19.4446 7.8701 18.4227 8.4401C17.554 8.9501 17.2474 10.0801 17.7686 10.9401C17.9321 11.2101 18.1161 11.4401 18.4022 11.5801ZM7.10959 10.0101C7.10959 11.5801 8.40748 12.8301 10.012 12.8301C11.6164 12.8301 12.8837 11.5801 12.8837 10.0101C12.8837 8.4401 11.6164 7.1801 10.012 7.1801C8.40748 7.1801 7.10959 8.4401 7.10959 10.0101Z"
              fill="white"/>
    </g>
    <g id="music">
        <g opacity="0.8">
            <g clip-path="url(#clip0_14_58)">
                <path d="M19 3H5C3.9 3 3 3.9 3 5V19C3 20.1 3.9 21 5 21H19C20.1 21 21 20.1 21 19V5C21 3.9 20.1 3 19 3ZM9 17H7V10H9V17ZM13 17H11V7H13V17ZM17 17H15V13H17V17Z"
                      fill="white"/>
            </g>
        </g>
        <defs>
            <clipPath id="clip0_14_58">
                <rect width="24" height="24" fill="white"/>
            </clipPath>
        </defs>
    </g>
    <g id="users">
        <g opacity="0.8">
            <g clip-path="url(#clip0_14_70)">
                <path d="M20 6H17.82C17.93 5.69 18 5.35 18 5C18 3.34 16.66 2 15 2C13.95 2 13.04 2.54 12.5 3.35L12 4.02L11.5 3.34C10.96 2.54 10.05 2 9 2C7.34 2 6 3.34 6 5C6 5.35 6.07 5.69 6.18 6H4C2.89 6 2.01 6.89 2.01 8L2 19C2 20.11 2.89 21 4 21H20C21.11 21 22 20.11 22 19V8C22 6.89 21.11 6 20 6ZM15 4C15.55 4 16 4.45 16 5C16 5.55 15.55 6 15 6C14.45 6 14 5.55 14 5C14 4.45 14.45 4 15 4ZM9 4C9.55 4 10 4.45 10 5C10 5.55 9.55 6 9 6C8.45 6 8 5.55 8 5C8 4.45 8.45 4 9 4ZM20 19H4V17H20V19ZM20 14H4V8H9.08L7 10.83L8.62 12L11 8.76L12 7.4L13 8.76L15.38 12L17 10.83L14.92 8H20V14Z"
                      fill="white"/>
            </g>
        </g>
        <defs>
            <clipPath id="clip0_14_70">
                <rect width="24" height="24" fill="white"/>
            </clipPath>
        </defs>
    </g>
    <g id="news">
        <path fill-rule="evenodd" clip-rule="evenodd"
              d="M4.81 0H13.191C16.28 0 18 1.78 18 4.83V15.16C18 18.26 16.28 20 13.191 20H4.81C1.77 20 0 18.26 0 15.16V4.83C0 1.78 1.77 0 4.81 0ZM5.08 4.66V4.65H8.069C8.5 4.65 8.85 5 8.85 5.429C8.85 5.87 8.5 6.22 8.069 6.22H5.08C4.649 6.22 4.3 5.87 4.3 5.44C4.3 5.01 4.649 4.66 5.08 4.66ZM5.08 10.74H12.92C13.35 10.74 13.7 10.39 13.7 9.96C13.7 9.53 13.35 9.179 12.92 9.179H5.08C4.649 9.179 4.3 9.53 4.3 9.96C4.3 10.39 4.649 10.74 5.08 10.74ZM5.08 15.31H12.92C13.319 15.27 13.62 14.929 13.62 14.53C13.62 14.12 13.319 13.78 12.92 13.74H5.08C4.78 13.71 4.49 13.85 4.33 14.11C4.17 14.36 4.17 14.69 4.33 14.95C4.49 15.2 4.78 15.35 5.08 15.31Z"
              fill="white"/>
    </g>
</svg>




